<?xml version="1.0" standalone="no"?>
<!DOCTYPE svg PUBLIC "-//W3C//DTD SVG 20010904//EN"
 "http://www.w3.org/TR/2001/REC-SVG-20010904/DTD/svg10.dtd">
<svg version="1.0" xmlns="http://www.w3.org/2000/svg"
 width="700.000000pt" height="700.000000pt" viewBox="0 0 700.000000 700.000000"
 preserveAspectRatio="xMidYMid meet">
<metadata>
Created by potrace 1.14, written by Peter Selinger 2001-2017
</metadata>
<g transform="translate(0.000000,700.000000) scale(0.100000,-0.100000)"
fill="#000000" stroke="none">
<path d="M2378 6415 c-2 -2 -43 -6 -93 -10 -49 -4 -93 -9 -96 -11 -3 -2 -24
-6 -45 -8 -68 -9 -226 -52 -329 -91 -464 -174 -835 -516 -1051 -970 -78 -164
-116 -295 -170 -575 -3 -19 -7 -965 -9 -2101 l-2 -2066 291 1 291 1 2 1870 c1
1029 2 1881 2 1895 l1 25 1308 0 1307 0 3 -1896 2 -1895 293 0 292 1 0 1778
c0 977 1 1777 2 1777 1 0 111 -66 245 -146 134 -81 257 -154 273 -164 17 -9
53 -31 80 -48 28 -16 101 -60 162 -97 l113 -67 2 -1516 3 -1517 287 -1 c254
-1 287 1 290 15 2 9 3 611 3 1339 -1 1141 1 1322 13 1317 8 -3 130 -74 271
-159 141 -84 265 -158 277 -164 20 -11 20 -10 20 279 l0 290 -820 492 c-452
271 -829 496 -839 502 -9 5 -81 48 -158 95 -78 47 -153 92 -168 100 -63 36
-66 42 -84 140 -30 171 -52 253 -103 382 -202 511 -618 914 -1135 1096 -77 27
-176 55 -237 67 -13 2 -31 6 -40 9 -16 4 -68 12 -152 22 -42 5 -298 13 -302 9z
m232 -589 c42 -4 91 -11 109 -16 17 -5 34 -9 36 -9 17 1 80 -16 145 -38 245
-83 469 -245 626 -452 56 -73 200 -338 190 -349 -3 -2 -1845 -4 -2378 -2 l-97
0 22 53 c157 384 488 676 885 777 101 26 122 29 222 36 47 4 86 7 87 8 3 2 68
-1 153 -8z"/>
<path d="M1750 3500 l0 -290 730 0 730 0 0 290 0 290 -730 0 -730 0 0 -290z"/>
<path d="M1754 2621 c-2 -2 -4 -134 -4 -292 l0 -287 730 0 730 0 -2 292 -3
291 -723 0 c-398 0 -725 -2 -728 -4z"/>
<path d="M1750 1167 l0 -293 723 2 c397 1 725 2 730 3 4 0 7 132 7 291 l0 290
-730 0 -730 0 0 -293z"/>
</g>
</svg>
