<?xml version="1.0" standalone="no"?>
<!DOCTYPE svg PUBLIC "-//W3C//DTD SVG 20010904//EN"
 "http://www.w3.org/TR/2001/REC-SVG-20010904/DTD/svg10.dtd">
<svg version="1.0" xmlns="http://www.w3.org/2000/svg"
 width="207.000000pt" height="207.000000pt" viewBox="0 0 207.000000 207.000000"
 preserveAspectRatio="xMidYMid meet">
<metadata>
Created by potrace 1.14, written by Peter Selinger 2001-2017
</metadata>
<g transform="translate(0.000000,207.000000) scale(0.100000,-0.100000)"
fill="#000000" stroke="none">
<path d="M677 1709 c-20 -11 -48 -36 -61 -57 -13 -20 -155 -265 -315 -543
-198 -346 -292 -520 -297 -548 -13 -83 48 -176 133 -201 27 -8 231 -10 698 -8
732 5 705 2 850 74 364 178 494 635 279 981 -62 100 -173 201 -276 251 -139
68 -176 72 -600 72 -352 -1 -375 -2 -411 -21z"/>
</g>
</svg>
